<?xml version="1.0" encoding="utf-8"?>
<!-- Generator: Adobe Illustrator 24.0.2, SVG Export Plug-In . SVG Version: 6.00 Build 0)  -->
<svg version="1.1" id="Layer_1" xmlns="http://www.w3.org/2000/svg" xmlns:xlink="http://www.w3.org/1999/xlink" x="0px" y="0px"
	 viewBox="0 0 96 93.6" style="enable-background:new 0 0 96 93.6;" xml:space="preserve">
<style type="text/css">
	.st0{fill:#D291FF;}
	.st1{fill:#1F0040;}
	.st2{fill:#FFFFFF;}
	.st3{opacity:0.15;}
</style>
<title>After Effects_1</title>
<path class="st0" d="M17.6,0h60.8C88.1,0,96,7.9,96,17.6V76c0,9.7-7.9,17.6-17.6,17.6H17.6C7.9,93.6,0,85.7,0,76V17.6
	C0,7.9,7.9,0,17.6,0z"/>
<path class="st1" d="M18.4,4h59.2c8,0,14.4,6.4,14.4,14.4v56.8c0,8-6.4,14.4-14.4,14.4H18.4c-8,0-14.4-6.4-14.4-14.4V18.4
	C4,10.4,10.4,4,18.4,4z"/>
<g>
	<path class="st2" d="M27.2,53.8l-3.2,12c0,0.3-0.2,0.5-0.6,0.5h-5.9c-0.3,0-0.5-0.2-0.3-0.6l11.4-39.7c0.2-1,0.4-2.1,0.3-3.2
		c0-0.3,0.2-0.3,0.3-0.3h8.3c0.3,0,0.3,0,0.5,0.3l12.8,43c0,0.3,0,0.5-0.3,0.5h-6.6c-0.3,0-0.5-0.1-0.6-0.3L40,53.8H27.2z
		 M38.4,47.4c-1.1-4.5-3.8-14.1-4.8-18.9l0,0c-0.8,4.6-3,12.6-4.6,18.9H38.4z M59.8,51.4c0,5.4,2.7,9.1,8.6,9.1
		c2.2,0.1,4.5-0.4,6.5-1.3c0.3-0.2,0.5,0,0.5,0.3v5c0,0.3-0.1,0.6-0.3,0.8c-2.1,1.1-4.8,1.4-8,1.4c-10.6,0-14.6-7.8-14.6-16.5
		c0-9.4,5-17.1,13.4-17.1c8.6,0,11.7,7.4,11.7,13.3c0,1.4-0.1,2.8-0.3,4.2c0,0.2-0.2,0.4-0.4,0.4c-2.2,0.3-4.5,0.4-6.7,0.3
		L59.8,51.4z M68,45.9h3v-0.6c0-2.3-1.1-6.3-5.2-6.3c-3.8,0-5.4,3.4-5.9,6.9L68,45.9z"/>
	<g class="st3">
		<path class="st0" d="M27.2,53.8l-3.2,12c0,0.3-0.2,0.5-0.6,0.5h-5.9c-0.3,0-0.5-0.2-0.3-0.6l11.4-39.7c0.2-1,0.4-2.1,0.3-3.2
			c0-0.3,0.2-0.3,0.3-0.3h8.3c0.3,0,0.3,0,0.5,0.3l12.8,43c0,0.3,0,0.5-0.3,0.5h-6.6c-0.3,0-0.5-0.1-0.6-0.3L40,53.8H27.2z
			 M38.4,47.4c-1.1-4.5-3.8-14.1-4.8-18.9l0,0c-0.8,4.6-3,12.6-4.6,18.9H38.4z M59.8,51.4c0,5.4,2.7,9.1,8.6,9.1
			c2.2,0.1,4.5-0.4,6.5-1.3c0.3-0.2,0.5,0,0.5,0.3v5c0,0.3-0.1,0.6-0.3,0.8c-2.1,1.1-4.8,1.4-8,1.4c-10.6,0-14.6-7.8-14.6-16.5
			c0-9.4,5-17.1,13.4-17.1c8.6,0,11.7,7.4,11.7,13.3c0,1.4-0.1,2.8-0.3,4.2c0,0.2-0.2,0.4-0.4,0.4c-2.2,0.3-4.5,0.4-6.7,0.3
			L59.8,51.4z M68,45.9h3v-0.6c0-2.3-1.1-6.3-5.2-6.3c-3.8,0-5.4,3.4-5.9,6.9L68,45.9z"/>
	</g>
</g>
</svg>
