<?xml version="1.0" encoding="utf-8"?>
<!-- Generator: Adobe Illustrator 24.0.2, SVG Export Plug-In . SVG Version: 6.00 Build 0)  -->
<svg version="1.1" id="Layer_1" xmlns="http://www.w3.org/2000/svg" xmlns:xlink="http://www.w3.org/1999/xlink" x="0px" y="0px"
	 viewBox="0 0 96 93.6" style="enable-background:new 0 0 96 93.6;" xml:space="preserve">
<style type="text/css">
	.st0{fill:#00C8FF;}
	.st1{fill:#001D26;}
	.st2{fill:#FFFFFF;}
	.st3{opacity:0.15;}
</style>
<title>Photoshop_1</title>
<path class="st0" d="M17.6,0h60.8C88.1,0,96,7.9,96,17.6V76c0,9.7-7.9,17.6-17.6,17.6H17.6C7.9,93.6,0,85.7,0,76V17.6
	C0,7.9,7.9,0,17.6,0z"/>
<path class="st1" d="M18.4,4h59.2c8,0,14.4,6.4,14.4,14.4v56.8c0,8-6.4,14.4-14.4,14.4H18.4c-8,0-14.4-6.4-14.4-14.4V18.4
	C4,10.4,10.4,4,18.4,4z"/>
<g>
	<path class="st2" d="M23.7,22.7c0-0.3,0.6-0.5,1-0.5c2.6-0.2,6.4-0.2,10.2-0.2c11,0,15.4,6.1,15.4,13.9c0,10.2-7.4,14.6-16.5,14.6
		h-3v15.4c0,0.2-0.1,0.4-0.3,0.5c0,0-0.1,0-0.1,0H24c-0.2,0-0.4-0.1-0.5-0.3c0,0,0-0.1,0-0.1L23.7,22.7z M30.7,44h3.2
		c4.7,0,9.1-1.6,9.1-8c0-5.1-3.2-7.7-8.5-7.7c-1.3,0-2.6,0-3.8,0.2V44z M65.1,39.2c-3.2,0-4.2,1.6-4.2,2.9s0.8,2.4,5,4.6
		c6.2,3,8.3,5.9,8.3,10.2c0,6.4-4.8,9.9-11.5,9.9c-2.9,0.1-5.7-0.5-8.3-1.8c-0.3-0.2-0.3-0.3-0.3-0.6v-5.9c0-0.3,0.2-0.5,0.5-0.3
		c2.4,1.6,5.2,2.4,8,2.4c3.2,0,4.5-1.3,4.5-3c0-1.4-1-2.7-5-4.8c-5.6-2.7-8-5.4-8-10.1c0-5.1,4-9.4,11-9.4c2.5-0.1,4.9,0.3,7.2,1.1
		c0.3,0.1,0.5,0.4,0.3,0.7c0,0,0,0,0,0.1v5.4c0,0.3-0.2,0.5-0.6,0.3C69.8,39.9,67.5,39.2,65.1,39.2L65.1,39.2z"/>
	<g class="st3">
		<path class="st0" d="M23.7,22.7c0-0.3,0.6-0.5,1-0.5c2.6-0.2,6.4-0.2,10.2-0.2c11,0,15.4,6.1,15.4,13.9c0,10.2-7.4,14.6-16.5,14.6
			h-3v15.4c0,0.2-0.1,0.4-0.3,0.5c0,0-0.1,0-0.1,0H24c-0.2,0-0.4-0.1-0.5-0.3c0,0,0-0.1,0-0.1L23.7,22.7z M30.7,44h3.2
			c4.7,0,9.1-1.6,9.1-8c0-5.1-3.2-7.7-8.5-7.7c-1.3,0-2.6,0-3.8,0.2V44z M65.1,39.2c-3.2,0-4.2,1.6-4.2,2.9s0.8,2.4,5,4.6
			c6.2,3,8.3,5.9,8.3,10.2c0,6.4-4.8,9.9-11.5,9.9c-2.9,0.1-5.7-0.5-8.3-1.8c-0.3-0.2-0.3-0.3-0.3-0.6v-5.9c0-0.3,0.2-0.5,0.5-0.3
			c2.4,1.6,5.2,2.4,8,2.4c3.2,0,4.5-1.3,4.5-3c0-1.4-1-2.7-5-4.8c-5.6-2.7-8-5.4-8-10.1c0-5.1,4-9.4,11-9.4c2.5-0.1,4.9,0.3,7.2,1.1
			c0.3,0.1,0.5,0.4,0.3,0.7c0,0,0,0,0,0.1v5.4c0,0.3-0.2,0.5-0.6,0.3C69.8,39.9,67.5,39.2,65.1,39.2L65.1,39.2z"/>
	</g>
</g>
</svg>
