<?xml version="1.0" encoding="utf-8"?>
<!-- Generator: Adobe Illustrator 24.0.2, SVG Export Plug-In . SVG Version: 6.00 Build 0)  -->
<svg version="1.1" id="Layer_1" xmlns="http://www.w3.org/2000/svg" xmlns:xlink="http://www.w3.org/1999/xlink" x="0px" y="0px"
	 viewBox="0 0 96 93.6" style="enable-background:new 0 0 96 93.6;" xml:space="preserve">
<style type="text/css">
	.st0{fill:#E586FF;}
	.st1{fill:#210027;}
	.st2{fill:#FFFFFF;}
	.st3{opacity:0.15;}
	.st4{fill:#E889FF;}
</style>
<title>Premiere Pro_1</title>
<path class="st0" d="M17.6,0h60.8C88.1,0,96,7.9,96,17.6V76c0,9.7-7.9,17.6-17.6,17.6H17.6C7.9,93.6,0,85.7,0,76V17.6
	C0,7.9,7.9,0,17.6,0z"/>
<path class="st1" d="M18.4,4h59.2c8,0,14.4,6.4,14.4,14.4v56.8c0,8-6.4,14.4-14.4,14.4H18.4c-8,0-14.4-6.4-14.4-14.4V18.4
	C4,10.4,10.4,4,18.4,4z"/>
<g>
	<path class="st2" d="M25.1,22.2c0-0.3,0-0.5,0.3-0.5c2.6-0.2,6.4-0.2,10.2-0.2c11,0,15.8,6.1,15.8,13.9c0,10.2-7.4,14.6-16.3,14.6
		h-3v15.4c0,0.2-0.1,0.4-0.3,0.5c0,0-0.1,0-0.1,0h-6.1c-0.2,0-0.4-0.1-0.5-0.3c0,0,0-0.1,0-0.1V22.2z M32.3,43.5h3.2
		c4.6,0,9.1-1.6,9.1-8c0-5.1-3.2-7.7-8.5-7.7c-1.3,0-2.6,0-3.8,0.2V43.5z M57.9,39.8c0-0.5,0-1.6-0.2-3.8c0-0.3,0-0.3,0.3-0.5
		c4.6-1.8,9.6-2.7,14.6-2.7c0.3,0,0.5,0,0.5,0.3v5.8c0,0.3-0.2,0.3-0.5,0.3c-2.5-0.1-5.1,0.1-7.5,0.8v25.1c0,0.2-0.1,0.4-0.3,0.5
		c0,0-0.1,0-0.1,0h-6.2c-0.2,0-0.4-0.1-0.5-0.3c0,0,0-0.1,0-0.1L57.9,39.8z"/>
	<g class="st3">
		<path class="st4" d="M25.1,22.2c0-0.3,0-0.5,0.3-0.5c2.6-0.2,6.4-0.2,10.2-0.2c11,0,15.8,6.1,15.8,13.9c0,10.2-7.4,14.6-16.3,14.6
			h-3v15.4c0,0.2-0.1,0.4-0.3,0.5c0,0-0.1,0-0.1,0h-6.1c-0.2,0-0.4-0.1-0.5-0.3c0,0,0-0.1,0-0.1V22.2z M32.3,43.5h3.2
			c4.6,0,9.1-1.6,9.1-8c0-5.1-3.2-7.7-8.5-7.7c-1.3,0-2.6,0-3.8,0.2V43.5z M57.9,39.8c0-0.5,0-1.6-0.2-3.8c0-0.3,0-0.3,0.3-0.5
			c4.6-1.8,9.6-2.7,14.6-2.7c0.3,0,0.5,0,0.5,0.3v5.8c0,0.3-0.2,0.3-0.5,0.3c-2.5-0.1-5.1,0.1-7.5,0.8v25.1c0,0.2-0.1,0.4-0.3,0.5
			c0,0-0.1,0-0.1,0h-6.2c-0.2,0-0.4-0.1-0.5-0.3c0,0,0-0.1,0-0.1L57.9,39.8z"/>
	</g>
</g>
</svg>
