<?xml version="1.0" encoding="utf-8"?>
<!-- Generator: Adobe Illustrator 24.0.2, SVG Export Plug-In . SVG Version: 6.00 Build 0)  -->
<svg version="1.1" id="Layer_1" xmlns="http://www.w3.org/2000/svg" xmlns:xlink="http://www.w3.org/1999/xlink" x="0px" y="0px"
	 viewBox="0 0 96 93.6" style="enable-background:new 0 0 96 93.6;" xml:space="preserve">
<style type="text/css">
	.st0{fill:#2C5AA8;}
	.st1{fill:#FFFFFF;}
	.st2{fill:none;stroke:#FFFFFF;stroke-width:4;stroke-miterlimit:10;}
</style>
<title>Photoshop_1</title>
<path class="st0" d="M77.4,93.3h-59C8.2,93.3,0,85.1,0,75V18.2C0,8.1,8.2-0.1,18.4-0.1h59c10.1,0,18.3,8.2,18.3,18.3V75
	C95.7,85.1,87.5,93.3,77.4,93.3z"/>
<g>
	<path class="st1" d="M50,21.6c5.1,0,9.3-1.3,9.3-2.9c0-1.6-4.1-2.9-9.2-2.9c-5.1,0-9.3,1.3-9.3,2.9C40.8,20.3,44.9,21.6,50,21.6
		 M49.3,77.8c-17.9,0-32.4-14.6-32.4-32.6c0-10.5,5-19.8,12.7-25.8c-13,14.7,1.5,46.4,9.9,47.2C49.8,67.4,53.8,34.3,66,30.1
		c9.2-3.5,16.1,10.3,11.9,25.9C73.7,69.2,62.8,77.6,49.3,77.8 M34.3,18.3c2.5-2.8,6.6-5,12.2-5.5c0.9-0.1,1.8-0.1,2.8-0.1
		c9.2,0,17.4,3.8,23.3,10c-0.8-0.3-2-0.7-4.2-0.7c-17.9,0-24,35.6-29.4,35.5C35.4,57.6,23.2,30.9,34.3,18.3 M49.3,10.4
		c-20.1,0-36.4,16.4-36.4,36.6c0,20.2,16.3,36.6,36.4,36.6c20.1,0,36.4-16.4,36.4-36.6C85.7,26.7,69.4,10.4,49.3,10.4"/>
</g>
<path class="st2" d="M78.1,91.5H17.6c-8.6,0-15.7-7-15.7-15.7V17.6C1.9,9,8.9,2,17.6,2h60.6c8.6,0,15.7,7,15.7,15.7v58.2
	C93.8,84.5,86.8,91.5,78.1,91.5z"/>
</svg>
